<?xml version="1.0" encoding="utf-8"?>
<!-- Generator: Adobe Illustrator 16.0.3, SVG Export Plug-In . SVG Version: 6.00 Build 0)  -->
<!DOCTYPE svg PUBLIC "-//W3C//DTD SVG 1.1//EN" "http://www.w3.org/Graphics/SVG/1.1/DTD/svg11.dtd">
<svg version="1.1" id="Layer_1" xmlns="http://www.w3.org/2000/svg" xmlns:xlink="http://www.w3.org/1999/xlink" x="0px" y="0px"
	 width="27px" height="48px" viewBox="0 0 27 48" enable-background="new 0 0 27 48" xml:space="preserve">
<g>
	<path d="M3,47h21V10H3V47z M12.49,13.361c0.292,0.03,0.586,0.071,0.882,0.14c3.409,0.781,5.619,3.837,4.937,6.827
		c-0.686,2.989-4.006,4.78-7.417,4c-0.94-0.215-1.786-0.609-2.509-1.122c3.035,0.043,5.678-1.66,6.277-4.277
		C15.129,16.878,14.224,14.789,12.49,13.361z"/>
	<polygon points="13.524,1.566 1,8 1,12 2,12 2,9 25,9 25,12 26,12 26,8 26.039,8 	"/>
</g>
<g>
</g>
<g>
</g>
<g>
</g>
<g>
</g>
<g>
</g>
<g>
</g>
<g>
</g>
<g>
</g>
<g>
</g>
<g>
</g>
<g>
</g>
<g>
</g>
<g>
</g>
<g>
</g>
<g>
</g>
</svg>
